<?xml version="1.0" encoding="UTF-8" standalone="no"?>
<svg
   xmlns:dc="http://purl.org/dc/elements/1.1/"
   xmlns:cc="http://creativecommons.org/ns#"
   xmlns:rdf="http://www.w3.org/1999/02/22-rdf-syntax-ns#"
   xmlns:svg="http://www.w3.org/2000/svg"
   xmlns="http://www.w3.org/2000/svg"
   viewBox="0 0 1587.4 1122.52"
   height="1122.52"
   width="1587.4"
   xml:space="preserve"
   id="svg2"
   version="1.1"><metadata
     id="metadata8"><rdf:RDF><cc:Work
         rdf:about=""><dc:format>image/svg+xml</dc:format><dc:type
           rdf:resource="http://purl.org/dc/dcmitype/StillImage" /></cc:Work></rdf:RDF></metadata><defs
     id="defs6"><clipPath
       id="clipPath18"
       clipPathUnits="userSpaceOnUse"><path
         id="path16"
         d="M 0,841.89 H 1190.551 V 0 H 0 Z" /></clipPath></defs><g
     transform="matrix(1.3333333,0,0,-1.3333333,0,1122.52)"
     id="g10"><g
       id="g12"><g
         clip-path="url(#clipPath18)"
         id="g14"><g
           transform="translate(191.0244,476.5065)"
           id="g20"><path
             id="path22"
             style="fill:#e3e1e0;fill-opacity:1;fill-rule:nonzero;stroke:none"
             d="m 0,0 c 0.215,0.673 0.717,1.263 1.51,1.769 0.793,0.505 1.511,0.757 2.159,0.757 h 2.809 c 2.446,0 4.784,-0.19 7.017,-0.568 2.229,-0.379 4.066,-1.033 5.506,-1.958 0.719,-0.505 1.223,-1.179 1.512,-2.02 0.287,-0.843 0.502,-1.938 0.647,-3.283 1.006,-7.998 1.799,-15.784 2.375,-23.361 0.575,-7.576 0.864,-15.027 0.864,-22.352 3.239,9.513 6.657,18.438 10.256,26.772 3.022,6.987 7.161,15.827 12.416,26.518 0.359,0.673 0.88,1.177 1.565,1.515 0.683,0.335 1.457,0.505 2.322,0.505 h 0.647 c 4.822,-0.843 9.212,-2.533 13.172,-5.066 0.648,-0.421 1.061,-1.075 1.241,-1.963 0.179,-0.886 0.269,-2.003 0.269,-3.354 0,-10.043 -0.253,-19.918 -0.755,-29.626 -0.145,-2.447 -1.332,-18.907 -3.563,-49.375 -0.144,-1.352 -0.557,-2.66 -1.24,-3.927 -0.686,-1.266 -1.459,-2.025 -2.322,-2.279 -0.865,-0.251 -1.963,-0.503 -3.293,-0.759 -1.333,-0.25 -2.358,-0.378 -3.077,-0.378 -2.374,0 -4.751,0.425 -7.125,1.267 -0.936,0.341 -1.639,1.059 -2.107,2.159 -0.468,1.099 -0.7,2.328 -0.7,3.679 0,3.892 0.395,9.012 1.187,15.361 1.799,14.384 2.7,23.395 2.7,27.033 -2.016,-4.294 -4.283,-9.364 -6.803,-15.215 -2.52,-5.852 -4.641,-10.797 -6.37,-14.837 -2.088,-4.97 -4.175,-9.934 -6.261,-14.901 -0.578,-1.263 -1.062,-2.168 -1.457,-2.716 -0.396,-0.548 -1.062,-0.821 -1.999,-0.821 -3.957,0 -6.855,0.273 -8.689,0.821 -1.837,0.548 -3.617,1.369 -5.346,2.464 -0.504,0.336 -0.81,0.777 -0.917,1.324 -0.108,0.548 -0.163,1.369 -0.163,2.464 0,4.292 -0.107,9.639 -0.322,16.036 -0.504,14.983 -0.757,24.119 -0.757,27.401 -3.526,-16.248 -7.054,-32.497 -10.579,-48.742 -0.289,-0.841 -0.81,-1.514 -1.567,-2.02 -0.755,-0.505 -1.529,-0.757 -2.32,-0.757 -1.729,0 -3.618,0.378 -5.668,1.137 -2.051,0.757 -4.12,1.724 -6.207,2.903 -0.576,0.254 -0.865,0.925 -0.865,2.019 v 1.518 c 3.6,16.329 5.685,25.8 6.263,28.412 1.653,7.406 3.886,16.793 6.693,28.158 C -4.968,-18.606 -2.522,-9.177 0,0" /></g><g
           transform="translate(298.7695,445.443)"
           id="g24"><path
             id="path26"
             style="fill:#e3e1e0;fill-opacity:1;fill-rule:nonzero;stroke:none"
             d="m 0,0 c -0.139,-0.421 -1.073,-3.283 -2.804,-8.587 -1.244,-3.789 -2.111,-6.314 -2.594,-7.577 l 3.671,-0.252 H 0 v 7.824 z m 17.921,25.497 c 0.576,-7.756 1.009,-15.027 1.295,-21.812 0.287,-6.788 0.432,-14.014 0.432,-21.684 0,-12.309 -0.569,-24.785 -1.708,-37.429 -0.214,-1.687 -1.086,-2.991 -2.616,-3.919 -1.531,-0.928 -3.294,-1.391 -5.284,-1.391 -2.495,0 -4.791,0.654 -6.892,1.966 -2.1,1.31 -3.148,2.937 -3.148,4.883 l -0.432,14.46 0.432,7.103 c -1.52,-1.6 -3.005,-2.716 -4.451,-3.346 -1.449,-0.632 -3.079,-0.948 -4.886,-0.948 l -3.692,0.251 c -2.461,-6.937 -5.573,-14.639 -9.335,-23.101 -0.074,-0.338 -0.434,-0.634 -1.086,-0.888 -0.652,-0.255 -1.303,-0.38 -1.953,-0.38 -2.68,0 -5.537,0.888 -8.577,2.666 -3.4,2.03 -5.103,4.104 -5.103,6.218 v 0.762 c 0.432,3.467 1.153,6.555 2.159,9.265 0.793,1.947 1.586,3.932 2.376,5.964 l -0.647,-0.252 c -0.865,0 -1.512,0.252 -1.944,0.758 -0.433,0.506 -0.648,1.093 -0.648,1.769 0.215,2.944 0.738,5.891 1.565,8.838 0.828,2.945 1.963,5.557 3.401,7.829 0.361,0.673 0.991,1.137 1.889,1.388 0.899,0.254 1.926,0.38 3.077,0.38 h 3.024 c 3.165,7.577 6.332,15.153 9.499,22.73 3.743,8.755 7.054,16.164 9.934,22.224 0.719,1.346 1.852,2.355 3.401,3.031 1.546,0.673 3.292,1.011 5.236,1.011 3.454,0 6.764,-0.846 9.932,-2.531 3.167,-1.684 4.75,-3.625 4.75,-5.815" /></g><g
           transform="translate(343.897,475.9987)"
           id="g28"><path
             id="path30"
             style="fill:#e3e1e0;fill-opacity:1;fill-rule:nonzero;stroke:none"
             d="m 0,0 c 0.215,1.179 0.898,2.064 2.051,2.654 1.15,0.589 2.482,0.885 3.994,0.885 2.377,0 4.983,-0.589 7.828,-1.768 2.842,-1.179 4.839,-2.526 5.992,-4.04 2.086,-3.031 3.598,-6.652 4.534,-10.859 0.719,-3.453 2.159,-12.798 4.318,-28.035 1.08,6.434 2.52,13.335 4.319,20.7 2.735,11.091 4.318,17.567 4.751,19.429 0.071,1.184 0.647,2.245 1.727,3.177 1.079,0.93 2.087,1.396 3.024,1.396 h 0.432 c 1.87,0 3.759,-0.402 5.668,-1.206 1.906,-0.802 3.831,-1.921 5.775,-3.356 0.359,-0.257 0.736,-0.849 1.133,-1.776 0.396,-0.933 0.594,-2.033 0.594,-3.298 v -1.268 c -1.512,-7.016 -3.492,-15.424 -5.938,-25.228 -0.936,-3.805 -3.131,-12.174 -6.585,-25.105 -2.952,-11.157 -5.111,-19.397 -6.478,-24.721 l -0.217,-1.523 c 0.576,-1.014 0.865,-1.943 0.865,-2.789 v -0.76 c -0.072,-1.099 -0.793,-2.008 -2.16,-2.725 -1.368,-0.72 -3.023,-1.077 -4.965,-1.077 -3.239,0 -6.227,0.84 -8.962,2.53 -3.167,1.94 -5.004,4.471 -5.506,7.594 -1.295,6.836 -2.555,16.117 -3.778,27.844 -0.865,8.354 -1.477,14.007 -1.835,16.961 -3.528,-17.972 -7.558,-34.926 -12.093,-50.863 -0.215,-0.932 -0.685,-1.822 -1.403,-2.671 -0.721,-0.849 -1.476,-1.311 -2.268,-1.395 h -3.669 c -1.873,0 -3.583,0.189 -5.128,0.567 -1.548,0.379 -3.079,1.033 -4.589,1.96 -0.504,0.254 -0.881,0.8 -1.134,1.645 -0.251,0.841 -0.378,1.811 -0.378,2.908 l 0.215,2.528 c 2.016,9.273 4.104,18.335 6.263,27.186 0.144,0.758 2.446,9.905 6.91,27.438 C -3.311,-13.572 -1.08,-4.556 0,0" /></g><g
           transform="translate(434.4546,480.8004)"
           id="g32"><path
             id="path34"
             style="fill:#e3e1e0;fill-opacity:1;fill-rule:nonzero;stroke:none"
             d="m 0,0 h 0.86 c 6.025,0 11.261,-1.894 15.707,-5.682 5.164,-4.378 7.745,-10.399 7.745,-18.059 v -4.04 c 0,-1.514 -1.564,-2.905 -4.695,-4.168 -3.132,-1.262 -6.244,-1.894 -9.34,-1.894 -2.015,0 -3.669,0.358 -4.965,1.075 -1.295,0.713 -1.942,1.705 -1.942,2.967 0,5.387 -1.238,8.083 -3.709,8.083 -4.363,0 -8.364,-4.104 -11.999,-12.312 -3.637,-8.208 -5.455,-16.48 -5.455,-24.814 v -3.031 c 0,-3.37 0.397,-6.359 1.189,-8.965 0.791,-2.613 1.979,-3.914 3.562,-3.914 1.584,0 3.148,0.86 4.696,2.587 1.548,1.724 2.646,3.64 3.294,5.747 h -0.433 l -1.942,-0.254 -1.511,0.505 c -0.218,0.336 -0.523,0.757 -0.918,1.262 -0.396,0.506 -0.595,0.925 -0.595,1.263 0,2.861 0.125,5.387 0.378,7.577 0.251,2.188 0.702,4.378 1.349,6.568 0.287,0.925 0.846,1.704 1.675,2.335 0.826,0.632 1.708,1.029 2.644,1.199 2.735,0.757 5.885,1.369 9.447,1.833 3.563,0.461 7.108,0.693 10.634,0.693 h 5.183 c 0.719,0 1.33,-0.422 1.834,-1.263 0.504,-0.841 0.757,-1.685 0.757,-2.526 v -1.514 c 0,-2.02 -0.145,-3.914 -0.432,-5.682 -0.289,-1.769 -1.008,-4.085 -2.159,-6.946 -0.361,-0.843 -0.991,-1.411 -1.89,-1.704 -0.9,-0.296 -1.71,-0.57 -2.429,-0.821 -0.793,-8.082 -4.39,-15.743 -10.796,-22.983 -6.406,-7.242 -12.955,-10.86 -19.648,-10.86 -6.191,0 -11.59,3.114 -16.195,9.345 -4.605,6.229 -6.91,13.807 -6.91,22.729 v 0.757 c 0,16.079 2.975,30.349 8.928,42.809 C -21.053,-7.367 -11.692,0 0,0" /></g><g
           transform="translate(496.1216,445.443)"
           id="g36"><path
             id="path38"
             style="fill:#e3e1e0;fill-opacity:1;fill-rule:nonzero;stroke:none"
             d="m 0,0 c -0.139,-0.421 -1.073,-3.283 -2.804,-8.587 -1.244,-3.789 -2.111,-6.314 -2.594,-7.577 l 3.671,-0.252 H 0 v 7.824 z m 17.921,25.497 c 0.576,-7.756 1.009,-15.027 1.295,-21.812 0.287,-6.788 0.432,-14.014 0.432,-21.684 0,-12.309 -0.569,-24.785 -1.708,-37.429 -0.214,-1.687 -1.086,-2.991 -2.616,-3.919 -1.531,-0.928 -3.294,-1.391 -5.284,-1.391 -2.495,0 -4.791,0.654 -6.892,1.966 -2.1,1.31 -3.148,2.937 -3.148,4.883 l -0.432,14.46 0.432,7.103 c -1.52,-1.6 -3.004,-2.716 -4.451,-3.346 -1.449,-0.632 -3.079,-0.948 -4.886,-0.948 l -3.692,0.251 c -2.461,-6.937 -5.573,-14.639 -9.335,-23.101 -0.074,-0.338 -0.434,-0.634 -1.086,-0.888 -0.652,-0.255 -1.303,-0.38 -1.953,-0.38 -2.68,0 -5.537,0.888 -8.577,2.666 -3.4,2.03 -5.103,4.104 -5.103,6.218 v 0.762 c 0.432,3.467 1.153,6.555 2.159,9.265 0.793,1.947 1.586,3.932 2.376,5.964 l -0.647,-0.252 c -0.865,0 -1.512,0.252 -1.944,0.758 -0.433,0.506 -0.648,1.093 -0.648,1.769 0.215,2.944 0.738,5.891 1.565,8.838 0.828,2.945 1.963,5.557 3.401,7.829 0.361,0.673 0.991,1.137 1.889,1.388 0.899,0.254 1.926,0.38 3.077,0.38 h 3.024 c 3.165,7.577 6.332,15.153 9.499,22.73 3.743,8.755 7.054,16.164 9.934,22.224 0.719,1.346 1.852,2.355 3.401,3.031 1.546,0.673 3.292,1.011 5.236,1.011 3.454,0 6.764,-0.846 9.932,-2.531 3.167,-1.684 4.75,-3.625 4.75,-5.815" /></g><g
           transform="translate(286.353,462.0504)"
           id="g40"><path
             id="path42"
             style="fill:#87898b;fill-opacity:1;fill-rule:nonzero;stroke:none"
             d="m 0,0 c -0.139,-0.422 -1.073,-3.283 -2.805,-8.588 -1.244,-3.788 -2.111,-6.314 -2.593,-7.577 l 3.671,-0.251 H 0 v 7.823 z m 17.921,25.497 c 0.576,-7.757 1.008,-15.028 1.295,-21.812 0.287,-6.788 0.432,-14.014 0.432,-21.685 0,-12.309 -0.569,-24.784 -1.708,-37.428 -0.215,-1.688 -1.086,-2.992 -2.617,-3.919 -1.531,-0.928 -3.293,-1.392 -5.284,-1.392 -2.495,0 -4.79,0.655 -6.891,1.966 -2.1,1.31 -3.148,2.938 -3.148,4.884 l -0.432,14.46 0.432,7.103 c -1.521,-1.601 -3.005,-2.716 -4.452,-3.347 -1.448,-0.632 -3.078,-0.947 -4.885,-0.947 l -3.692,0.251 c -2.461,-6.937 -5.574,-14.64 -9.335,-23.102 -0.074,-0.338 -0.435,-0.634 -1.086,-0.888 -0.652,-0.254 -1.303,-0.38 -1.953,-0.38 -2.68,0 -5.537,0.888 -8.578,2.666 -3.399,2.031 -5.103,4.105 -5.103,6.218 v 0.763 c 0.433,3.467 1.154,6.554 2.16,9.265 0.792,1.946 1.585,3.931 2.376,5.964 l -0.647,-0.252 c -0.865,0 -1.513,0.252 -1.945,0.758 -0.432,0.505 -0.647,1.092 -0.647,1.768 0.215,2.944 0.738,5.892 1.565,8.839 0.828,2.945 1.963,5.557 3.401,7.828 0.361,0.673 0.991,1.137 1.889,1.389 0.898,0.254 1.926,0.38 3.077,0.38 h 3.023 c 3.165,7.576 6.333,15.153 9.5,22.729 3.743,8.756 7.053,16.165 9.934,22.224 0.719,1.347 1.851,2.356 3.401,3.032 1.546,0.673 3.291,1.011 5.236,1.011 3.454,0 6.764,-0.846 9.931,-2.531 3.168,-1.684 4.751,-3.625 4.751,-5.815" /></g><g
           transform="translate(331.48,492.6056)"
           id="g44"><path
             id="path46"
             style="fill:#87898b;fill-opacity:1;fill-rule:nonzero;stroke:none"
             d="m 0,0 c 0.215,1.179 0.898,2.064 2.052,2.654 1.149,0.589 2.482,0.885 3.993,0.885 2.377,0 4.983,-0.589 7.828,-1.768 2.842,-1.179 4.839,-2.526 5.993,-4.04 2.085,-3.031 3.597,-6.652 4.533,-10.859 0.719,-3.453 2.16,-12.798 4.319,-28.035 1.079,6.434 2.519,13.335 4.318,20.7 2.735,11.091 4.318,17.567 4.751,19.43 0.071,1.183 0.647,2.244 1.727,3.176 1.08,0.93 2.088,1.396 3.024,1.396 h 0.432 c 1.87,0 3.759,-0.402 5.668,-1.206 1.906,-0.801 3.831,-1.921 5.776,-3.356 0.358,-0.257 0.735,-0.849 1.132,-1.776 0.396,-0.932 0.595,-2.033 0.595,-3.298 v -1.267 c -1.513,-7.017 -3.493,-15.425 -5.938,-25.229 -0.936,-3.805 -3.132,-12.174 -6.586,-25.104 -2.952,-11.158 -5.111,-19.398 -6.477,-24.723 l -0.218,-1.521 c 0.576,-1.014 0.865,-1.944 0.865,-2.79 v -0.759 c -0.072,-1.101 -0.793,-2.008 -2.16,-2.726 -1.368,-0.721 -3.023,-1.078 -4.965,-1.078 -3.239,0 -6.227,0.841 -8.962,2.53 -3.167,1.942 -5.004,4.472 -5.506,7.595 -1.294,6.836 -2.555,16.117 -3.778,27.844 -0.865,8.354 -1.477,14.007 -1.835,16.961 -3.528,-17.972 -7.557,-34.925 -12.093,-50.863 -0.215,-0.932 -0.685,-1.822 -1.402,-2.67 -0.721,-0.849 -1.476,-1.313 -2.269,-1.397 h -3.669 c -1.873,0 -3.583,0.19 -5.128,0.567 -1.548,0.38 -3.079,1.034 -4.589,1.961 -0.504,0.254 -0.881,0.799 -1.134,1.645 -0.251,0.842 -0.378,1.81 -0.378,2.908 l 0.215,2.528 c 2.016,9.273 4.104,18.335 6.263,27.186 0.144,0.758 2.446,9.905 6.91,27.438 C -3.311,-13.572 -1.08,-4.555 0,0" /></g><g
           transform="translate(422.0376,497.4073)"
           id="g48"><path
             id="path50"
             style="fill:#87898b;fill-opacity:1;fill-rule:nonzero;stroke:none"
             d="m 0,0 h 0.86 c 6.025,0 11.261,-1.894 15.708,-5.682 5.164,-4.378 7.745,-10.399 7.745,-18.059 v -4.04 c 0,-1.514 -1.565,-2.905 -4.696,-4.168 -3.132,-1.262 -6.244,-1.894 -9.339,-1.894 -2.016,0 -3.669,0.358 -4.966,1.075 -1.295,0.713 -1.942,1.705 -1.942,2.968 0,5.386 -1.238,8.082 -3.709,8.082 -4.363,0 -8.363,-4.104 -11.998,-12.312 -3.638,-8.208 -5.455,-16.48 -5.455,-24.814 v -3.031 c 0,-3.369 0.396,-6.358 1.189,-8.965 0.79,-2.612 1.978,-3.914 3.561,-3.914 1.584,0 3.148,0.86 4.696,2.587 1.548,1.724 2.646,3.64 3.294,5.747 h -0.432 l -1.942,-0.255 -1.512,0.506 c -0.218,0.336 -0.523,0.757 -0.917,1.263 -0.397,0.505 -0.595,0.925 -0.595,1.262 0,2.861 0.124,5.387 0.377,7.577 0.251,2.188 0.702,4.378 1.35,6.568 0.286,0.925 0.845,1.704 1.674,2.335 0.827,0.632 1.708,1.029 2.644,1.199 2.735,0.757 5.885,1.369 9.447,1.833 3.563,0.461 7.108,0.693 10.634,0.693 h 5.183 c 0.719,0 1.33,-0.422 1.834,-1.263 0.504,-0.841 0.757,-1.685 0.757,-2.526 v -1.514 c 0,-2.02 -0.145,-3.914 -0.432,-5.682 -0.289,-1.769 -1.008,-4.085 -2.159,-6.946 -0.36,-0.843 -0.991,-1.41 -1.889,-1.704 -0.901,-0.296 -1.711,-0.57 -2.429,-0.821 -0.793,-8.082 -4.391,-15.743 -10.797,-22.984 -6.406,-7.241 -12.955,-10.859 -19.648,-10.859 -6.191,0 -11.589,3.115 -16.195,9.344 -4.605,6.231 -6.91,13.808 -6.91,22.73 v 0.758 c 0,16.078 2.976,30.348 8.928,42.808 C -21.053,-7.367 -11.692,0 0,0" /></g><g
           transform="translate(483.7051,462.0504)"
           id="g52"><path
             id="path54"
             style="fill:#87898b;fill-opacity:1;fill-rule:nonzero;stroke:none"
             d="m 0,0 c -0.139,-0.422 -1.073,-3.283 -2.805,-8.588 -1.244,-3.788 -2.11,-6.314 -2.593,-7.577 l 3.671,-0.251 H 0 v 7.823 z m 17.921,25.497 c 0.576,-7.757 1.008,-15.028 1.295,-21.812 0.287,-6.788 0.432,-14.014 0.432,-21.685 0,-12.309 -0.569,-24.784 -1.708,-37.428 -0.215,-1.688 -1.086,-2.992 -2.617,-3.919 -1.531,-0.928 -3.293,-1.392 -5.284,-1.392 -2.494,0 -4.79,0.655 -6.891,1.966 -2.1,1.31 -3.148,2.938 -3.148,4.884 l -0.432,14.46 0.432,7.103 c -1.521,-1.601 -3.005,-2.716 -4.451,-3.347 -1.449,-0.632 -3.079,-0.947 -4.886,-0.947 l -3.692,0.251 c -2.461,-6.937 -5.574,-14.64 -9.335,-23.102 -0.074,-0.338 -0.435,-0.634 -1.086,-0.888 -0.652,-0.254 -1.303,-0.38 -1.953,-0.38 -2.68,0 -5.537,0.888 -8.578,2.666 -3.399,2.031 -5.102,4.105 -5.102,6.218 v 0.763 c 0.432,3.467 1.153,6.554 2.159,9.265 0.792,1.946 1.585,3.931 2.376,5.964 l -0.647,-0.252 c -0.865,0 -1.513,0.252 -1.945,0.758 -0.432,0.505 -0.647,1.092 -0.647,1.768 0.215,2.944 0.738,5.892 1.565,8.839 0.828,2.945 1.963,5.557 3.401,7.828 0.361,0.673 0.991,1.137 1.889,1.389 0.899,0.254 1.926,0.38 3.077,0.38 h 3.023 c 3.165,7.576 6.333,15.153 9.5,22.729 3.743,8.756 7.054,16.165 9.934,22.224 0.719,1.347 1.851,2.356 3.401,3.032 1.546,0.673 3.292,1.011 5.236,1.011 3.454,0 6.764,-0.846 9.931,-2.531 3.168,-1.684 4.751,-3.625 4.751,-5.815" /></g><g
           transform="translate(186.0073,492.798)"
           id="g56"><path
             id="path58"
             style="fill:#87898b;fill-opacity:1;fill-rule:nonzero;stroke:none"
             d="m 0,0 c 0.215,0.673 0.717,1.263 1.51,1.768 0.793,0.506 1.511,0.757 2.159,0.757 h 2.809 c 2.446,0 4.784,-0.19 7.017,-0.567 2.229,-0.379 4.066,-1.033 5.506,-1.958 0.719,-0.506 1.223,-1.179 1.512,-2.02 0.286,-0.843 0.502,-1.938 0.647,-3.283 1.006,-7.998 1.799,-15.784 2.375,-23.361 0.575,-7.576 0.864,-15.027 0.864,-22.352 3.239,9.513 6.657,18.438 10.256,26.772 3.022,6.987 7.161,15.827 12.416,26.518 0.359,0.673 0.879,1.176 1.565,1.514 0.683,0.336 1.457,0.506 2.322,0.506 h 0.646 c 4.823,-0.844 9.213,-2.533 13.173,-5.066 0.648,-0.422 1.061,-1.075 1.24,-1.963 0.179,-0.886 0.27,-2.003 0.27,-3.354 0,-10.043 -0.253,-19.918 -0.755,-29.626 -0.145,-2.447 -1.332,-18.907 -3.563,-49.376 -0.144,-1.351 -0.557,-2.659 -1.24,-3.927 -0.686,-1.264 -1.459,-2.024 -2.322,-2.278 -0.865,-0.252 -1.963,-0.503 -3.294,-0.76 -1.332,-0.249 -2.357,-0.378 -3.076,-0.378 -2.374,0 -4.751,0.425 -7.125,1.269 -0.936,0.34 -1.639,1.058 -2.107,2.157 -0.468,1.101 -0.7,2.329 -0.7,3.681 0,3.891 0.395,9.012 1.187,15.36 1.799,14.384 2.7,23.395 2.7,27.033 -2.016,-4.294 -4.283,-9.364 -6.803,-15.215 -2.52,-5.852 -4.641,-10.797 -6.37,-14.837 -2.088,-4.97 -4.175,-9.935 -6.261,-14.902 -0.578,-1.262 -1.062,-2.168 -1.457,-2.716 -0.396,-0.546 -1.062,-0.821 -1.999,-0.821 -3.958,0 -6.855,0.275 -8.689,0.821 -1.837,0.548 -3.617,1.37 -5.346,2.464 -0.504,0.336 -0.81,0.778 -0.917,1.326 -0.108,0.546 -0.163,1.368 -0.163,2.463 0,4.291 -0.107,9.638 -0.322,16.036 -0.504,14.983 -0.757,24.118 -0.757,27.401 -3.526,-16.248 -7.054,-32.496 -10.579,-48.742 -0.289,-0.841 -0.81,-1.514 -1.567,-2.02 -0.755,-0.506 -1.529,-0.758 -2.32,-0.758 -1.729,0 -3.618,0.378 -5.668,1.138 -2.051,0.757 -4.12,1.724 -6.208,2.902 -0.575,0.254 -0.864,0.925 -0.864,2.021 v 1.517 c 3.6,16.329 5.685,25.8 6.263,28.412 1.653,7.406 3.886,16.793 6.693,28.157 C -4.968,-18.606 -2.522,-9.177 0,0" /></g><g
           transform="translate(572.0576,457.7516)"
           id="g60"><path
             id="path62"
             style="fill:#e3e1e0;fill-opacity:1;fill-rule:nonzero;stroke:none"
             d="m 0,0 c -0.433,-2.13 -2.107,-3.986 -5.028,-5.562 -2.919,-1.579 -5.713,-2.365 -8.38,-2.365 -1.224,0 -2.253,0.232 -3.081,0.702 -0.83,0.469 -1.334,1.386 -1.514,2.749 -0.18,1.364 -0.378,3.025 -0.593,4.988 l 0.215,2.046 V 3.07 c 0,1.873 -0.72,2.812 -2.162,2.812 -0.721,0 -1.478,-0.255 -2.27,-0.767 -0.795,-0.512 -1.335,-1.021 -1.623,-1.533 -2.956,-5.457 -5.406,-11.382 -7.353,-17.776 -2.449,-8.014 -3.674,-15.729 -3.674,-23.145 l 0.215,-3.325 c 0,-1.108 0.27,-1.94 0.811,-2.495 0.541,-0.553 1.206,-0.831 2,-0.831 0.648,0 1.333,0.15 2.055,0.449 0.72,0.298 1.332,0.66 1.837,1.087 0.866,0.767 1.909,3.07 3.136,6.906 0.648,1.958 1.332,3.302 2.055,4.026 0.72,0.724 1.82,1.299 3.298,1.729 1.476,0.424 2.974,0.639 4.486,0.639 2.234,0 4.164,-0.47 5.786,-1.409 1.622,-0.939 2.433,-2.345 2.433,-4.218 0,-9.039 -3.028,-17.094 -9.083,-24.17 -6.054,-7.078 -12.759,-10.614 -20.11,-10.614 -5.84,0 -10.561,3.239 -14.166,9.721 -3.244,5.794 -4.866,12.357 -4.866,19.69 v 2.558 c 0,16.881 3.1,31.542 9.3,43.99 7.28,14.664 17.37,21.996 30.275,21.996 h 1.512 c 4.758,0 8.47,-2.028 11.137,-6.074 2.666,-4.051 4,-9.016 4,-14.898 C 0.648,4.773 0.433,2.303 0,0" /></g><g
           transform="translate(597.1416,462.3546)"
           id="g64"><path
             id="path66"
             style="fill:#e3e1e0;fill-opacity:1;fill-rule:nonzero;stroke:none"
             d="m 0,0 8.002,-2.557 c 0.576,-0.17 1.188,-0.64 1.837,-1.406 0.65,-0.767 0.974,-1.662 0.974,-2.685 -0.216,-1.622 -0.687,-4.136 -1.405,-7.545 -0.722,-3.41 -1.191,-6.01 -1.406,-7.801 l 1.296,-0.255 c 3.028,0 6.056,1.747 9.083,5.243 3.028,3.494 4.543,6.861 4.543,10.103 v 0.509 c 0,2.643 -1.082,4.541 -3.244,5.692 C 17.518,0.45 14.776,1.024 11.461,1.024 9.731,1.024 7.93,0.917 6.055,0.705 4.179,0.49 2.162,0.257 0,0 m -13.824,16.624 c 5.497,2.303 10.09,3.944 13.78,4.925 3.691,0.979 7.634,1.469 11.83,1.469 h 2.821 c 8.03,0 14.65,-3.035 19.858,-9.101 4.846,-5.642 7.27,-12.178 7.27,-19.611 v -0.26 c 0,-6.751 -1.297,-12.606 -3.891,-17.561 C 34.6,-29.581 29.337,-34.412 22.058,-38 c 4.973,-10.343 9.946,-20.684 14.921,-31.023 l 0.216,-1.539 c 0,-1.196 -0.29,-2.138 -0.866,-2.82 -3.604,-3.416 -7.425,-5.981 -11.461,-7.689 h -1.944 c -1.371,0 -2.163,0.426 -2.38,1.278 -2.812,4.604 -5.875,10.44 -9.191,17.519 -2.882,6.138 -5.729,12.317 -8.542,18.542 -1.586,-8.783 -3.605,-17.309 -6.055,-25.576 -0.215,-0.854 -0.593,-1.664 -1.134,-2.43 -0.54,-0.767 -1.1,-1.152 -1.677,-1.152 l -1.729,-0.255 c -2.237,0 -4.162,0.213 -5.784,0.64 -1.622,0.425 -3.804,1.234 -6.543,2.43 -1.153,0.34 -1.729,1.361 -1.729,3.07 l 0.215,0.767 c 0.648,4.006 1.947,10.442 3.892,19.308 1.947,8.867 3.749,16.837 5.406,23.912 0.577,2.473 2.306,9.634 5.191,21.485 -2.378,-0.597 -4.758,-1.194 -7.135,-1.791 l -1.73,-0.512 c -1.299,0 -1.947,0.852 -1.947,2.558 0,3.239 0.452,6.905 1.356,10.999 0.904,4.091 1.826,6.394 2.768,6.903" /></g><g
           transform="translate(674.5576,450.5909)"
           id="g68"><path
             id="path70"
             style="fill:#e3e1e0;fill-opacity:1;fill-rule:nonzero;stroke:none"
             d="m 0,0 c -0.14,-0.427 -1.075,-3.324 -2.809,-8.696 -1.246,-3.837 -2.114,-6.394 -2.597,-7.673 l 3.677,-0.255 H 0 v 7.923 z m 17.948,25.82 c 0.576,-7.855 1.01,-15.217 1.297,-22.089 0.287,-6.873 0.433,-14.19 0.433,-21.958 0,-12.466 -0.571,-25.098 -1.71,-37.904 -0.216,-1.708 -1.088,-3.029 -2.621,-3.969 -1.534,-0.938 -3.299,-1.408 -5.292,-1.408 -2.499,0 -4.798,0.662 -6.902,1.99 C 1.05,-58.191 0,-56.543 0,-54.572 L -0.433,-39.929 0,-32.735 c -1.522,-1.621 -3.009,-2.75 -4.458,-3.39 -1.45,-0.64 -3.083,-0.959 -4.893,-0.959 l -3.698,0.255 c -2.464,-7.026 -5.581,-14.826 -9.348,-23.396 -0.075,-0.341 -0.436,-0.641 -1.088,-0.898 -0.653,-0.258 -1.305,-0.385 -1.955,-0.385 -2.685,0 -5.546,0.899 -8.591,2.699 -3.405,2.056 -5.111,4.157 -5.111,6.297 v 0.772 c 0.433,3.511 1.156,6.638 2.163,9.384 0.793,1.97 1.587,3.981 2.379,6.039 l -0.648,-0.255 c -0.865,0 -1.514,0.255 -1.947,0.766 -0.433,0.513 -0.648,1.107 -0.648,1.791 0.215,2.983 0.739,5.967 1.567,8.952 0.83,2.982 1.965,5.627 3.406,7.927 0.361,0.682 0.993,1.152 1.892,1.407 0.9,0.257 1.928,0.384 3.082,0.384 h 3.028 c 3.17,7.673 6.342,15.345 9.514,23.018 3.748,8.867 7.063,16.369 9.948,22.506 0.72,1.363 1.854,2.385 3.406,3.069 1.548,0.682 3.297,1.024 5.244,1.024 3.459,0 6.775,-0.856 9.946,-2.563 3.172,-1.705 4.758,-3.671 4.758,-5.889" /></g><g
           transform="translate(712.3994,480.777)"
           id="g72"><path
             id="path74"
             style="fill:#e3e1e0;fill-opacity:1;fill-rule:nonzero;stroke:none"
             d="m 0,0 c 0,1.446 0.342,2.575 1.028,3.384 0.684,0.807 1.567,1.212 2.648,1.212 h 0.648 c 2.235,-0.51 4.489,-1.002 6.758,-1.469 2.272,-0.469 4.487,-1.089 6.65,-1.856 0.505,-0.254 0.955,-0.747 1.352,-1.471 0.395,-0.724 0.596,-1.428 0.596,-2.108 v -3.836 c 0,-3.924 -0.109,-8.824 -0.326,-14.706 -0.504,-13.727 -0.756,-22.635 -0.756,-26.727 1.874,4.773 3.892,10.4 6.054,16.879 1.873,5.627 3.747,11.297 5.622,17.009 2.235,6.394 4.397,11.891 6.488,16.497 0.866,1.533 2.38,2.3 4.542,2.3 1.874,0 3.747,-0.3 5.622,-0.895 1.224,-0.341 3.097,-1.151 5.624,-2.43 0.574,0 1.007,-0.684 1.296,-2.045 0,-4.691 0.108,-10.445 0.325,-17.263 0.503,-15.943 0.757,-25.96 0.757,-30.052 1.368,4.773 3.061,10.443 5.08,17.007 2.381,7.757 4.435,14.196 6.165,19.311 2.231,6.649 4.035,11.509 5.406,14.576 0.215,0.597 0.684,1.044 1.404,1.344 0.72,0.297 1.55,0.447 2.488,0.447 H 77.2 c 4.253,-0.852 7.857,-2.383 10.813,-4.598 1.009,-0.937 1.514,-2.298 1.514,-4.086 l -0.215,-1.789 c -3.029,-10.045 -6.057,-19.326 -9.083,-27.841 -2.163,-6.128 -5.514,-15.155 -10.057,-27.073 -2.09,-5.448 -5.585,-14.388 -10.486,-26.817 -0.434,-1.109 -1.065,-2.13 -1.893,-3.067 -0.83,-0.937 -1.713,-1.446 -2.65,-1.531 H 52.98 c -1.876,0 -3.784,0.19 -5.729,0.571 -1.947,0.385 -3.93,0.96 -5.947,1.724 -0.578,0.255 -1.155,0.787 -1.73,1.594 -0.578,0.808 -0.865,1.551 -0.865,2.232 l -1.081,43.112 c -1.731,-6.892 -4.471,-15.054 -8.218,-24.49 -2.523,-6.379 -5.552,-13.351 -9.082,-20.917 -0.579,-1.191 -1.407,-2.128 -2.488,-2.807 -1.081,-0.679 -2.271,-1.019 -3.567,-1.019 -2.092,0 -4.128,0.318 -6.109,0.956 -1.983,0.64 -4.055,1.597 -6.218,2.872 -0.504,0.34 -0.883,0.895 -1.135,1.661 -0.254,0.767 -0.378,1.662 -0.378,2.686 0,6.893 -0.073,17.023 -0.216,30.39 C 0.071,-39.762 0,-29.714 0,-22.988 Z" /></g><g
           transform="translate(832.6338,476.4215)"
           id="g76"><path
             id="path78"
             style="fill:#e3e1e0;fill-opacity:1;fill-rule:nonzero;stroke:none"
             d="m 0,0 c -1.227,-6.479 -2.722,-13.362 -4.487,-20.65 -1.768,-7.291 -3.479,-14.387 -5.136,-21.292 -2.093,-8.612 -3.715,-15.602 -4.866,-20.973 H 6.487 c 1.873,-0.341 2.812,-1.279 2.812,-2.812 -0.649,-6.736 -2.237,-12.787 -4.759,-18.16 -0.289,-0.852 -0.849,-1.533 -1.677,-2.045 -0.827,-0.513 -1.638,-0.767 -2.432,-0.767 -1.081,0 -3.118,-0.107 -6.108,-0.32 -2.992,-0.212 -4.633,-0.319 -4.92,-0.319 -2.163,0 -4.487,0.08 -6.973,0.239 -2.488,0.16 -4.488,0.293 -6.001,0.4 -0.723,0 -2.776,2.342 -6.163,7.033 -3.676,5.115 -5.516,8.737 -5.516,10.87 v 0.766 c 1.66,10.146 4.146,22.421 7.461,36.83 2.883,12.53 5.801,25.063 8.758,37.594 0.143,0.682 0.505,1.236 1.081,1.663 0.576,0.424 1.153,0.639 1.731,0.639 h 0.431 C -13.481,8.354 -11.138,7.842 -8.76,7.163 -7.317,6.733 -4.976,5.967 -1.731,4.86 -1.155,4.605 -0.722,4.176 -0.433,3.582 -0.146,2.984 0,2.303 0,1.536 Z" /></g><g
           transform="translate(911.5625,484.8634)"
           id="g80"><path
             id="path82"
             style="fill:#e3e1e0;fill-opacity:1;fill-rule:nonzero;stroke:none"
             d="m 0,0 c 0.502,0 0.918,-0.365 1.243,-1.089 0.323,-0.724 0.486,-1.641 0.486,-2.747 0,-2.9 -0.739,-6.779 -2.215,-11.639 -1.478,-4.858 -2.542,-7.288 -3.191,-7.288 -2.019,0 -5.045,-0.128 -9.083,-0.385 -4.038,-0.255 -6.992,-0.382 -8.865,-0.382 -1.66,0 -4.487,0.127 -8.487,0.382 -4.002,0.257 -6.217,0.385 -6.651,0.385 1.01,-0.347 2.199,-0.844 3.57,-1.494 1.368,-0.652 2.358,-1.086 2.973,-1.301 0.611,-0.217 1.151,-0.717 1.621,-1.496 0.467,-0.779 0.702,-1.691 0.702,-2.73 0,-0.954 -0.306,-2.535 -0.918,-4.745 -0.613,-2.211 -0.957,-3.49 -1.027,-3.834 2.162,0 6.035,-0.088 11.623,-0.258 5.586,-0.172 8.415,-0.254 8.488,-0.254 1.153,0 1.729,-1.356 1.729,-4.069 0,-3.137 -0.739,-6.931 -2.215,-11.381 -1.478,-4.451 -2.759,-6.761 -3.84,-6.929 h -1.513 c -1.154,0 -4.289,0.063 -9.407,0.192 -5.119,0.128 -8.614,0.19 -10.489,0.19 l -3.675,-13.172 2.594,-0.255 h 10.597 5.081 3.784 c 0.287,0 0.541,-0.43 0.759,-1.294 0.215,-0.864 0.322,-1.897 0.322,-3.104 0,-3.539 -0.612,-7.271 -1.837,-11.197 -1.226,-3.926 -2.631,-5.886 -4.217,-5.886 h -28.976 c -1.659,0 -3.533,1.633 -5.623,4.905 -2.089,3.27 -3.314,6.052 -3.677,8.345 v 0.763 c 0,1.529 0.903,5.778 2.703,12.744 1.081,4.16 1.693,6.877 1.839,8.151 -1.586,0 -2.739,0.17 -3.461,0.513 -0.143,0.256 -0.251,0.554 -0.323,0.896 -0.071,0.339 -0.108,0.809 -0.108,1.406 0,3.579 0.613,7.458 1.837,11.637 1.515,5.03 3.206,7.545 5.081,7.545 h 2.162 c 0.362,1.426 1.065,4.006 2.111,7.74 1.043,3.734 1.784,6.526 2.215,8.372 -1.945,0 -3.443,0.147 -4.486,0.447 -1.048,0.297 -1.569,0.747 -1.569,1.343 l 0.218,0.253 c 0.43,4.041 0.955,7.452 1.567,10.232 0.612,2.78 1.603,5.518 2.973,8.213 0.216,0.674 0.792,1.221 1.729,1.643 0.936,0.42 2.091,0.632 3.462,0.632 2.306,0 6.27,0.127 11.894,0.382 5.621,0.257 8.576,0.385 8.865,0.385 2.596,0 6.342,-0.128 11.245,-0.385 C -5.479,0.127 -2.02,0 0,0" /></g><g
           transform="translate(933.1865,462.3546)"
           id="g84"><path
             id="path86"
             style="fill:#e3e1e0;fill-opacity:1;fill-rule:nonzero;stroke:none"
             d="m 0,0 8.002,-2.557 c 0.576,-0.17 1.189,-0.64 1.837,-1.406 0.65,-0.767 0.974,-1.662 0.974,-2.685 -0.215,-1.622 -0.687,-4.136 -1.405,-7.545 -0.721,-3.41 -1.19,-6.01 -1.406,-7.801 l 1.297,-0.255 c 3.028,0 6.056,1.747 9.083,5.243 3.028,3.494 4.542,6.861 4.542,10.103 v 0.509 c 0,2.643 -1.081,4.541 -3.243,5.692 -2.163,1.152 -4.905,1.726 -8.22,1.726 -1.73,0 -3.53,-0.107 -5.406,-0.319 C 4.18,0.49 2.163,0.257 0,0 m -13.823,16.624 c 5.497,2.303 10.09,3.944 13.779,4.925 3.691,0.979 7.634,1.469 11.83,1.469 h 2.821 c 8.03,0 14.65,-3.035 19.858,-9.101 4.847,-5.642 7.27,-12.178 7.27,-19.611 v -0.26 c 0,-6.751 -1.296,-12.606 -3.891,-17.561 C 34.6,-29.581 29.338,-34.412 22.058,-38 27.031,-48.343 32.005,-58.684 36.98,-69.023 l 0.215,-1.539 c 0,-1.196 -0.289,-2.138 -0.865,-2.82 -3.605,-3.416 -7.426,-5.981 -11.461,-7.689 h -1.945 c -1.37,0 -2.162,0.426 -2.38,1.278 -2.811,4.604 -5.875,10.44 -9.19,17.519 -2.883,6.138 -5.73,12.317 -8.542,18.542 -1.586,-8.783 -3.606,-17.309 -6.055,-25.576 -0.216,-0.854 -0.594,-1.664 -1.134,-2.43 -0.541,-0.767 -1.101,-1.152 -1.677,-1.152 l -1.729,-0.255 c -2.238,0 -4.163,0.213 -5.784,0.64 -1.622,0.425 -3.804,1.234 -6.543,2.43 -1.154,0.34 -1.73,1.361 -1.73,3.07 l 0.216,0.767 c 0.648,4.006 1.946,10.442 3.892,19.308 1.947,8.867 3.749,16.837 5.406,23.912 0.576,2.473 2.305,9.634 5.19,21.485 -2.378,-0.597 -4.758,-1.194 -7.135,-1.791 l -1.73,-0.512 c -1.299,0 -1.946,0.852 -1.946,2.558 0,3.239 0.451,6.905 1.355,10.999 0.904,4.091 1.826,6.394 2.769,6.903" /></g><g
           transform="translate(1029.1992,459.7975)"
           id="g88"><path
             id="path90"
             style="fill:#e3e1e0;fill-opacity:1;fill-rule:nonzero;stroke:none"
             d="m 0,0 c -0.433,-0.34 -1.657,-0.725 -3.676,-1.149 -2.019,-0.43 -3.892,-0.64 -5.622,-0.64 -1.586,0 -2.919,0.17 -4,0.51 -1.081,0.34 -1.621,0.852 -1.621,1.536 0,0.682 -0.218,1.321 -0.651,1.918 -0.431,0.595 -1.153,0.894 -2.162,0.894 h -0.431 c -1.227,0 -2.256,-0.531 -3.083,-1.598 -0.828,-1.067 -1.242,-2.153 -1.242,-3.26 v -0.769 c 0.219,-1.193 3.191,-8.651 8.914,-22.378 2.274,-5.455 3.41,-10.357 3.41,-14.706 v -2.046 c 0,-10.741 -3.207,-18.627 -9.621,-23.657 -4.903,-3.836 -11.138,-5.754 -18.706,-5.754 h -2.378 c -5.047,0 -8.688,0.3 -10.922,0.896 -4.251,1.107 -6.378,3.368 -6.378,6.777 0,3.751 0.287,7.33 0.863,10.742 0.579,3.409 1.443,7.16 2.596,11.254 0.216,0.595 0.703,1.191 1.459,1.788 0.759,0.597 1.498,0.979 2.218,1.151 0.72,0.17 1.351,0.278 1.892,0.32 0.54,0.043 1.17,0.065 1.892,0.065 h 1.189 2.433 c 0.827,0 1.784,-0.107 2.865,-0.32 1.081,-0.215 1.909,-1.131 2.487,-2.749 0.143,-0.343 0.216,-1.025 0.216,-2.046 v -3.581 c 0.071,-0.343 0.197,-0.683 0.378,-1.022 0.18,-0.343 0.487,-0.512 0.919,-0.512 1.802,0 3.261,0.617 4.38,1.853 1.117,1.236 1.675,2.665 1.675,4.283 v 0.512 c -0.216,2.815 -3.459,10.743 -9.731,23.785 -2.74,5.712 -4.108,10.657 -4.108,14.836 l 0.216,0.509 c 0,9.634 3.855,17.051 11.57,22.251 6.055,4.094 12.937,6.14 20.652,6.14 h 1.944 c 2.813,0 4.937,-0.065 6.38,-0.193 1.442,-0.127 2.99,-0.574 4.65,-1.344 C 1.658,23.869 2.434,23.125 3.191,22.059 3.947,20.992 4.325,19.951 4.325,18.927 4.325,14.066 4.146,10.57 3.785,8.442 3.137,4.688 1.874,1.875 0,0" /></g><g
           transform="translate(566.2207,470.7965)"
           id="g92"><path
             id="path94"
             style="fill:#87898b;fill-opacity:1;fill-rule:nonzero;stroke:none"
             d="m 0,0 c -0.433,-2.13 -2.107,-3.986 -5.028,-5.562 -2.919,-1.579 -5.713,-2.365 -8.38,-2.365 -1.225,0 -2.253,0.232 -3.081,0.702 -0.83,0.469 -1.335,1.386 -1.514,2.749 -0.18,1.364 -0.378,3.025 -0.594,4.988 l 0.216,2.046 V 3.07 c 0,1.873 -0.72,2.812 -2.162,2.812 -0.721,0 -1.479,-0.255 -2.271,-0.767 -0.794,-0.511 -1.334,-1.021 -1.622,-1.533 -2.956,-5.457 -5.406,-11.382 -7.353,-17.776 -2.449,-8.014 -3.674,-15.729 -3.674,-23.145 l 0.215,-3.324 c 0,-1.109 0.27,-1.941 0.811,-2.495 0.541,-0.555 1.206,-0.832 2,-0.832 0.648,0 1.333,0.15 2.055,0.449 0.72,0.298 1.332,0.66 1.837,1.087 0.866,0.767 1.909,3.07 3.136,6.906 0.648,1.958 1.332,3.302 2.055,4.026 0.72,0.724 1.82,1.299 3.298,1.729 1.476,0.424 2.973,0.639 4.486,0.639 2.234,0 4.164,-0.47 5.786,-1.409 1.622,-0.939 2.433,-2.345 2.433,-4.218 0,-9.039 -3.028,-17.094 -9.083,-24.17 -6.054,-7.078 -12.759,-10.614 -20.11,-10.614 -5.84,0 -10.561,3.239 -14.166,9.721 -3.244,5.794 -4.866,12.358 -4.866,19.69 v 2.558 c 0,16.881 3.1,31.542 9.3,43.99 7.279,14.664 17.37,21.997 30.275,21.997 h 1.512 c 4.758,0 8.47,-2.029 11.137,-6.075 2.665,-4.051 4,-9.016 4,-14.898 C 0.648,4.773 0.433,2.303 0,0" /></g><g
           transform="translate(591.3047,475.4)"
           id="g96"><path
             id="path98"
             style="fill:#87898b;fill-opacity:1;fill-rule:nonzero;stroke:none"
             d="m 0,0 8.001,-2.558 c 0.577,-0.17 1.189,-0.639 1.838,-1.406 0.65,-0.766 0.974,-1.661 0.974,-2.685 -0.216,-1.621 -0.687,-4.136 -1.405,-7.545 -0.722,-3.41 -1.191,-6.009 -1.407,-7.8 l 1.297,-0.255 c 3.028,0 6.056,1.746 9.083,5.243 3.028,3.494 4.543,6.86 4.543,10.102 v 0.51 c 0,2.643 -1.082,4.54 -3.244,5.692 C 17.518,0.449 14.776,1.024 11.461,1.024 9.731,1.024 7.93,0.917 6.055,0.704 4.179,0.489 2.162,0.257 0,0 m -13.824,16.624 c 5.497,2.303 10.09,3.943 13.78,4.925 3.691,0.979 7.634,1.469 11.83,1.469 h 2.821 c 8.029,0 14.65,-3.035 19.857,-9.101 4.847,-5.643 7.271,-12.179 7.271,-19.612 v -0.26 c 0,-6.751 -1.297,-12.605 -3.892,-17.56 -3.243,-6.067 -8.506,-10.897 -15.785,-14.486 4.973,-10.343 9.946,-20.683 14.921,-31.023 l 0.216,-1.538 c 0,-1.196 -0.29,-2.139 -0.866,-2.82 -3.604,-3.416 -7.425,-5.982 -11.461,-7.69 h -1.944 c -1.371,0 -2.163,0.427 -2.381,1.279 -2.811,4.603 -5.875,10.44 -9.19,17.518 -2.882,6.139 -5.729,12.318 -8.542,18.542 -1.586,-8.782 -3.605,-17.309 -6.055,-25.575 -0.215,-0.855 -0.593,-1.664 -1.134,-2.431 -0.54,-0.766 -1.1,-1.151 -1.677,-1.151 l -1.729,-0.255 c -2.237,0 -4.163,0.213 -5.784,0.64 -1.622,0.424 -3.804,1.233 -6.543,2.429 -1.153,0.34 -1.729,1.362 -1.729,3.071 l 0.215,0.766 c 0.648,4.006 1.947,10.443 3.892,19.309 1.947,8.867 3.749,16.836 5.406,23.912 0.577,2.473 2.306,9.633 5.191,21.484 -2.378,-0.597 -4.758,-1.194 -7.135,-1.791 l -1.73,-0.511 c -1.299,0 -1.947,0.851 -1.947,2.557 0,3.239 0.452,6.906 1.356,10.999 0.904,4.092 1.826,6.394 2.768,6.904" /></g><g
           transform="translate(668.7207,463.6364)"
           id="g100"><path
             id="path102"
             style="fill:#87898b;fill-opacity:1;fill-rule:nonzero;stroke:none"
             d="m 0,0 c -0.14,-0.427 -1.075,-3.325 -2.809,-8.697 -1.246,-3.836 -2.114,-6.394 -2.597,-7.673 l 3.677,-0.254 H 0 v 7.922 z m 17.948,25.82 c 0.576,-7.855 1.01,-15.218 1.297,-22.089 0.287,-6.873 0.433,-14.191 0.433,-21.959 0,-12.465 -0.571,-25.098 -1.711,-37.903 -0.215,-1.708 -1.087,-3.03 -2.62,-3.969 -1.534,-0.939 -3.299,-1.408 -5.292,-1.408 -2.499,0 -4.799,0.662 -6.902,1.99 C 1.05,-58.192 0,-56.543 0,-54.573 L -0.433,-39.929 0,-32.736 c -1.522,-1.621 -3.009,-2.75 -4.458,-3.389 -1.451,-0.64 -3.083,-0.959 -4.893,-0.959 l -3.698,0.254 c -2.464,-7.026 -5.581,-14.826 -9.348,-23.395 -0.075,-0.342 -0.436,-0.642 -1.088,-0.899 -0.653,-0.257 -1.305,-0.384 -1.955,-0.384 -2.685,0 -5.546,0.899 -8.591,2.699 -3.405,2.056 -5.111,4.156 -5.111,6.297 v 0.771 c 0.433,3.512 1.155,6.639 2.163,9.384 0.793,1.971 1.587,3.981 2.379,6.039 l -0.648,-0.255 c -0.865,0 -1.514,0.255 -1.947,0.767 -0.433,0.512 -0.648,1.107 -0.648,1.791 0.215,2.982 0.739,5.967 1.567,8.952 0.83,2.981 1.965,5.626 3.406,7.927 0.361,0.681 0.992,1.151 1.892,1.406 0.9,0.257 1.928,0.385 3.082,0.385 h 3.028 c 3.17,7.672 6.342,15.345 9.514,23.017 3.748,8.867 7.063,16.37 9.948,22.506 0.72,1.364 1.854,2.385 3.406,3.07 1.548,0.682 3.297,1.024 5.244,1.024 3.459,0 6.775,-0.857 9.946,-2.563 3.172,-1.706 4.758,-3.671 4.758,-5.889" /></g><g
           transform="translate(706.5615,493.8219)"
           id="g104"><path
             id="path106"
             style="fill:#87898b;fill-opacity:1;fill-rule:nonzero;stroke:none"
             d="M 0,0 C 0,1.446 0.343,2.575 1.029,3.384 1.713,4.191 2.596,4.596 3.677,4.596 H 4.325 C 6.56,4.086 8.813,3.594 11.083,3.127 13.355,2.658 15.57,2.038 17.733,1.271 18.238,1.017 18.687,0.524 19.085,-0.2 c 0.394,-0.724 0.596,-1.428 0.596,-2.108 v -3.836 c 0,-3.924 -0.109,-8.824 -0.326,-14.706 -0.504,-13.727 -0.756,-22.635 -0.756,-26.727 1.874,4.773 3.892,10.4 6.054,16.879 1.873,5.627 3.746,11.297 5.622,17.009 2.235,6.394 4.397,11.891 6.488,16.497 0.865,1.533 2.38,2.3 4.542,2.3 1.873,0 3.747,-0.3 5.622,-0.895 1.224,-0.341 3.097,-1.151 5.624,-2.43 0.574,0 1.007,-0.684 1.296,-2.045 0,-4.691 0.108,-10.445 0.325,-17.263 0.503,-15.943 0.756,-25.96 0.756,-30.052 1.369,4.773 3.062,10.443 5.081,17.007 2.381,7.757 4.435,14.196 6.165,19.311 2.231,6.649 4.035,11.509 5.406,14.576 0.215,0.597 0.684,1.044 1.404,1.344 0.72,0.297 1.55,0.447 2.488,0.447 h 1.729 c 4.253,-0.852 7.857,-2.383 10.813,-4.598 1.009,-0.937 1.513,-2.298 1.513,-4.086 l -0.214,-1.789 c -3.029,-10.045 -6.057,-19.326 -9.084,-27.841 -2.162,-6.128 -5.513,-15.155 -10.056,-27.073 -2.09,-5.448 -5.585,-14.388 -10.486,-26.817 -0.434,-1.109 -1.065,-2.13 -1.893,-3.067 -0.83,-0.937 -1.713,-1.446 -2.65,-1.531 h -2.163 c -1.876,0 -3.784,0.19 -5.729,0.571 -1.947,0.385 -3.93,0.96 -5.947,1.724 -0.578,0.255 -1.156,0.787 -1.73,1.594 -0.578,0.809 -0.865,1.551 -0.865,2.232 l -1.082,43.112 c -1.73,-6.892 -4.47,-15.054 -8.217,-24.489 -2.523,-6.379 -5.552,-13.352 -9.083,-20.918 -0.578,-1.191 -1.406,-2.128 -2.487,-2.807 -1.081,-0.679 -2.271,-1.019 -3.567,-1.019 -2.092,0 -4.128,0.318 -6.109,0.956 -1.983,0.64 -4.055,1.597 -6.218,2.872 -0.505,0.34 -0.883,0.895 -1.135,1.661 -0.254,0.767 -0.378,1.662 -0.378,2.686 0,6.893 -0.073,17.023 -0.216,30.39 C 0.072,-39.762 0,-29.714 0,-22.988 Z" /></g><g
           transform="translate(826.7969,489.4664)"
           id="g108"><path
             id="path110"
             style="fill:#87898b;fill-opacity:1;fill-rule:nonzero;stroke:none"
             d="m 0,0 c -1.227,-6.479 -2.722,-13.362 -4.487,-20.65 -1.768,-7.291 -3.479,-14.387 -5.136,-21.292 -2.093,-8.612 -3.715,-15.603 -4.866,-20.973 H 6.487 c 1.873,-0.342 2.811,-1.278 2.811,-2.812 -0.648,-6.736 -2.236,-12.787 -4.758,-18.16 -0.289,-0.852 -0.849,-1.533 -1.677,-2.045 -0.827,-0.513 -1.638,-0.767 -2.432,-0.767 -1.081,0 -3.118,-0.107 -6.108,-0.32 -2.992,-0.212 -4.633,-0.319 -4.92,-0.319 -2.163,0 -4.488,0.08 -6.973,0.239 -2.488,0.16 -4.488,0.293 -6.002,0.4 -0.722,0 -2.775,2.342 -6.162,7.033 -3.676,5.115 -5.516,8.737 -5.516,10.87 v 0.766 c 1.66,10.146 4.146,22.421 7.461,36.83 2.883,12.53 5.801,25.063 8.758,37.594 0.143,0.682 0.505,1.236 1.081,1.663 0.576,0.424 1.153,0.639 1.731,0.639 h 0.431 C -13.481,8.354 -11.138,7.842 -8.76,7.163 -7.317,6.733 -4.976,5.967 -1.731,4.86 -1.155,4.605 -0.723,4.176 -0.433,3.582 -0.146,2.984 0,2.303 0,1.536 Z" /></g><g
           transform="translate(905.7256,497.9083)"
           id="g112"><path
             id="path114"
             style="fill:#87898b;fill-opacity:1;fill-rule:nonzero;stroke:none"
             d="m 0,0 c 0.502,0 0.918,-0.365 1.243,-1.089 0.323,-0.724 0.486,-1.641 0.486,-2.747 0,-2.9 -0.739,-6.779 -2.215,-11.639 -1.479,-4.858 -2.542,-7.288 -3.191,-7.288 -2.019,0 -5.045,-0.128 -9.083,-0.385 -4.038,-0.255 -6.992,-0.382 -8.865,-0.382 -1.66,0 -4.487,0.127 -8.487,0.382 -4.002,0.257 -6.217,0.385 -6.651,0.385 1.01,-0.347 2.199,-0.844 3.57,-1.494 1.368,-0.652 2.358,-1.086 2.973,-1.301 0.611,-0.217 1.151,-0.717 1.621,-1.496 0.467,-0.779 0.702,-1.691 0.702,-2.73 0,-0.954 -0.306,-2.535 -0.918,-4.745 -0.614,-2.211 -0.957,-3.49 -1.027,-3.834 2.162,0 6.035,-0.088 11.623,-0.258 5.586,-0.172 8.415,-0.254 8.488,-0.254 1.153,0 1.729,-1.356 1.729,-4.069 0,-3.137 -0.739,-6.931 -2.215,-11.381 -1.478,-4.451 -2.759,-6.761 -3.84,-6.929 h -1.513 c -1.154,0 -4.289,0.063 -9.407,0.192 -5.119,0.128 -8.614,0.19 -10.489,0.19 l -3.675,-13.172 2.594,-0.255 h 10.597 5.081 3.784 c 0.287,0 0.541,-0.429 0.758,-1.293 0.216,-0.865 0.323,-1.899 0.323,-3.105 0,-3.539 -0.612,-7.271 -1.837,-11.197 -1.226,-3.926 -2.631,-5.886 -4.217,-5.886 h -28.976 c -1.66,0 -3.533,1.633 -5.623,4.905 -2.089,3.27 -3.314,6.052 -3.677,8.345 v 0.763 c 0,1.529 0.903,5.777 2.703,12.743 1.081,4.161 1.693,6.878 1.839,8.152 -1.586,0 -2.739,0.17 -3.461,0.513 -0.143,0.256 -0.251,0.554 -0.323,0.896 -0.072,0.34 -0.108,0.809 -0.108,1.406 0,3.579 0.613,7.458 1.837,11.637 1.515,5.03 3.206,7.545 5.081,7.545 h 2.162 c 0.362,1.426 1.065,4.006 2.111,7.74 1.043,3.734 1.784,6.526 2.215,8.372 -1.946,0 -3.443,0.147 -4.486,0.447 -1.048,0.297 -1.569,0.747 -1.569,1.343 l 0.218,0.253 c 0.43,4.041 0.954,7.452 1.567,10.232 0.612,2.78 1.603,5.518 2.973,8.213 0.216,0.674 0.792,1.221 1.729,1.643 0.936,0.42 2.091,0.632 3.462,0.632 2.306,0 6.27,0.127 11.894,0.382 5.621,0.257 8.576,0.385 8.865,0.385 2.596,0 6.342,-0.128 11.245,-0.385 C -5.479,0.127 -2.02,0 0,0" /></g><g
           transform="translate(927.3496,475.4)"
           id="g116"><path
             id="path118"
             style="fill:#87898b;fill-opacity:1;fill-rule:nonzero;stroke:none"
             d="m 0,0 8.002,-2.558 c 0.576,-0.17 1.188,-0.639 1.837,-1.406 0.65,-0.766 0.974,-1.661 0.974,-2.685 -0.215,-1.621 -0.687,-4.136 -1.405,-7.545 -0.721,-3.41 -1.19,-6.009 -1.406,-7.8 l 1.297,-0.255 c 3.028,0 6.056,1.746 9.083,5.243 3.028,3.494 4.542,6.86 4.542,10.102 v 0.51 c 0,2.643 -1.081,4.54 -3.244,5.692 C 17.518,0.449 14.776,1.024 11.461,1.024 9.731,1.024 7.93,0.917 6.055,0.704 4.18,0.489 2.163,0.257 0,0 m -13.823,16.624 c 5.497,2.303 10.09,3.943 13.779,4.925 3.691,0.979 7.634,1.469 11.83,1.469 h 2.821 c 8.03,0 14.65,-3.035 19.858,-9.101 4.847,-5.643 7.27,-12.179 7.27,-19.612 v -0.26 c 0,-6.751 -1.296,-12.605 -3.891,-17.56 -3.244,-6.067 -8.507,-10.897 -15.786,-14.486 4.973,-10.343 9.947,-20.683 14.921,-31.023 l 0.216,-1.538 c 0,-1.196 -0.289,-2.139 -0.866,-2.82 -3.604,-3.416 -7.425,-5.982 -11.46,-7.69 h -1.945 c -1.37,0 -2.162,0.427 -2.38,1.279 -2.811,4.603 -5.875,10.44 -9.19,17.518 -2.883,6.139 -5.73,12.318 -8.542,18.542 -1.586,-8.782 -3.606,-17.309 -6.055,-25.575 -0.216,-0.855 -0.594,-1.664 -1.134,-2.431 -0.541,-0.766 -1.101,-1.151 -1.677,-1.151 l -1.73,-0.255 c -2.237,0 -4.162,0.213 -5.784,0.64 -1.621,0.424 -3.803,1.233 -6.542,2.429 -1.154,0.34 -1.73,1.362 -1.73,3.071 l 0.216,0.766 c 0.647,4.006 1.946,10.443 3.892,19.309 1.947,8.867 3.748,16.836 5.406,23.912 0.576,2.473 2.305,9.633 5.19,21.484 -2.378,-0.597 -4.758,-1.194 -7.135,-1.791 l -1.73,-0.511 c -1.299,0 -1.947,0.851 -1.947,2.557 0,3.239 0.452,6.906 1.356,10.999 0.904,4.092 1.826,6.394 2.769,6.904" /></g><g
           transform="translate(1023.3623,472.8424)"
           id="g120"><path
             id="path122"
             style="fill:#87898b;fill-opacity:1;fill-rule:nonzero;stroke:none"
             d="m 0,0 c -0.433,-0.34 -1.657,-0.725 -3.677,-1.149 -2.018,-0.43 -3.891,-0.64 -5.621,-0.64 -1.586,0 -2.919,0.17 -4,0.51 -1.081,0.34 -1.622,0.852 -1.622,1.536 0,0.682 -0.217,1.321 -0.65,1.918 -0.431,0.595 -1.153,0.894 -2.162,0.894 h -0.431 c -1.228,0 -2.256,-0.531 -3.083,-1.598 -0.828,-1.067 -1.242,-2.153 -1.242,-3.26 v -0.769 c 0.219,-1.193 3.191,-8.651 8.914,-22.378 2.274,-5.455 3.41,-10.357 3.41,-14.706 v -2.046 c 0,-10.742 -3.207,-18.627 -9.621,-23.657 -4.903,-3.836 -11.138,-5.754 -18.706,-5.754 h -2.378 c -5.047,0 -8.689,0.3 -10.922,0.896 -4.251,1.107 -6.378,3.368 -6.378,6.777 0,3.751 0.287,7.33 0.863,10.741 0.579,3.41 1.443,7.161 2.596,11.255 0.216,0.594 0.703,1.191 1.459,1.788 0.759,0.597 1.498,0.979 2.218,1.151 0.72,0.17 1.351,0.278 1.891,0.32 0.541,0.043 1.171,0.065 1.893,0.065 h 1.189 2.433 c 0.827,0 1.784,-0.107 2.865,-0.32 1.081,-0.215 1.909,-1.131 2.486,-2.749 0.143,-0.343 0.217,-1.025 0.217,-2.046 v -3.582 c 0.071,-0.342 0.197,-0.681 0.378,-1.021 0.18,-0.343 0.487,-0.512 0.919,-0.512 1.802,0 3.261,0.617 4.38,1.853 1.117,1.236 1.675,2.665 1.675,4.283 v 0.512 c -0.216,2.815 -3.459,10.743 -9.731,23.785 -2.74,5.712 -4.108,10.657 -4.108,14.836 l 0.216,0.509 c 0,9.634 3.855,17.051 11.57,22.251 6.055,4.094 12.937,6.14 20.652,6.14 h 1.944 c 2.813,0 4.937,-0.065 6.38,-0.193 1.442,-0.127 2.99,-0.574 4.65,-1.344 C 1.658,23.869 2.433,23.125 3.191,22.059 3.947,20.992 4.325,19.951 4.325,18.927 4.325,14.066 4.146,10.57 3.784,8.442 3.137,4.688 1.873,1.875 0,0" /></g></g></g></g></svg>